<svg width="135" height="110" viewBox="0 0 135 110" fill="none" xmlns="http://www.w3.org/2000/svg">
<path fill-rule="evenodd" clip-rule="evenodd" d="M35.4929 109.5H0L19.4929 87H63.4929C69.0157 87 73.4929 82.5229 73.4929 77V75.5C73.4929 69.9772 69.0157 65.5 63.4929 65.5H43.4928H40.25C22.1627 65.5 7.5 50.8373 7.5 32.75C7.5 14.6627 22.1627 0 40.25 0H43.4928H95C112.949 0 127.5 14.5507 127.5 32.5V34.5C127.5 51.6208 113.621 65.5 96.5 65.5L135 109.5H105.5L91.8166 94C87.3854 103.179 78.8333 109.5 65.4929 109.5H35.4929ZM29.4928 32C29.4928 26.4771 33.97 22 39.4928 22H68H96C101.523 22 106 26.4772 106 32V33C106 38.5228 101.523 43 96 43H68H39.4928C33.97 43 29.4928 38.5228 29.4928 33V32Z" fill="#4E72C1"/>
</svg>
